<svg width="29" height="29" viewBox="0 0 29 29" fill="none" xmlns="http://www.w3.org/2000/svg">
<g id="clarity:shopping-cart-line">
<path id="Vector" d="M10.7383 25.7773C11.7393 25.7773 12.5508 24.9659 12.5508 23.9648C12.5508 22.9638 11.7393 22.1523 10.7383 22.1523C9.73727 22.1523 8.92578 22.9638 8.92578 23.9648C8.92578 24.9659 9.73727 25.7773 10.7383 25.7773Z" fill="#272727"/>
<path id="Vector_2" d="M21.75 25.7773C22.751 25.7773 23.5625 24.9659 23.5625 23.9648C23.5625 22.9638 22.751 22.1523 21.75 22.1523C20.749 22.1523 19.9375 22.9638 19.9375 23.9648C19.9375 24.9659 20.749 25.7773 21.75 25.7773Z" fill="#272727"/>
<path id="Vector_3" d="M26.648 4.32616C26.573 4.23375 26.4785 4.1591 26.3713 4.10756C26.264 4.05603 26.1467 4.02889 26.0277 4.02811H9.25605L9.77967 5.63922H24.9724L22.8216 15.3059H10.7383L7.05689 3.6495C7.01707 3.52581 6.94792 3.41359 6.85534 3.32242C6.76276 3.23124 6.6495 3.16381 6.52522 3.12588L3.22244 2.11088C3.12089 2.07968 3.01418 2.06878 2.90841 2.07881C2.80264 2.08884 2.69989 2.11961 2.60601 2.16935C2.41642 2.26981 2.2745 2.44148 2.21147 2.64658C2.14845 2.85168 2.16948 3.07342 2.26994 3.26301C2.3704 3.4526 2.54207 3.59452 2.74717 3.65755L5.63911 4.54366L9.33661 16.2242L8.0155 17.3037L7.91078 17.4084C7.58399 17.785 7.39877 18.2637 7.387 18.7622C7.37524 19.2607 7.53768 19.7476 7.84633 20.1392C8.06589 20.4062 8.3449 20.6181 8.66102 20.758C8.97715 20.8979 9.32162 20.9619 9.66689 20.9448H23.1116C23.3253 20.9448 23.5302 20.8599 23.6812 20.7088C23.8323 20.5578 23.9172 20.3529 23.9172 20.1392C23.9172 19.9256 23.8323 19.7207 23.6812 19.5696C23.5302 19.4185 23.3253 19.3337 23.1116 19.3337H9.538C9.44524 19.3305 9.35486 19.3035 9.2756 19.2552C9.19633 19.2069 9.13086 19.1389 9.08551 19.058C9.04016 18.977 9.01646 18.8857 9.0167 18.7929C9.01694 18.7 9.04112 18.6089 9.08689 18.5281L11.0283 16.917H23.4661C23.6523 16.9215 23.8343 16.8614 23.9812 16.7469C24.1281 16.6323 24.2307 16.4704 24.2716 16.2887L26.8252 5.01088C26.8497 4.89079 26.8465 4.76669 26.8158 4.64803C26.7851 4.52938 26.7277 4.41929 26.648 4.32616Z" fill="#272727"/>
</g>
</svg>
