<svg width="29" height="29" viewBox="0 0 29 29" fill="none" xmlns="http://www.w3.org/2000/svg">
<g id="codicon:heart" clip-path="url(#clip0_111_20)">
<g id="Group">
<g id="Vector" filter="url(#filter0_d_111_20)">
<path d="M26.9698 8.66386C26.8236 8.09145 26.5978 7.54236 26.2992 7.0326C26.0123 6.50232 25.6455 6.01937 25.2117 5.60073C24.5827 4.97385 23.8378 4.47522 23.0186 4.1326C21.3695 3.4558 19.5202 3.4558 17.8711 4.1326C17.0967 4.46037 16.3853 4.92036 15.7686 5.49198L15.6779 5.60073L14.4998 6.77885L13.3217 5.60073L13.2311 5.49198C12.6144 4.92036 11.9029 4.46037 11.1286 4.1326C9.47947 3.4558 7.63016 3.4558 5.98106 4.1326C5.16179 4.47522 4.41693 4.97385 3.78794 5.60073C2.92766 6.4378 2.31868 7.49881 2.02982 8.66386C1.87614 9.25549 1.80298 9.86516 1.81232 10.4764C1.81232 11.0509 1.88482 11.6237 2.02982 12.1801C2.18176 12.7421 2.40084 13.2837 2.68232 13.7932C2.9863 14.3171 3.35805 14.7985 3.78794 15.2251L14.4998 25.937L25.2117 15.2251C25.6412 14.8028 26.0092 14.3189 26.2992 13.7932C26.8879 12.7875 27.1947 11.6417 27.1873 10.4764C27.1967 9.86515 27.1236 9.25548 26.9698 8.66386ZM25.1573 11.6182C24.9402 12.4464 24.5089 13.2028 23.9067 13.8114L14.4636 23.2364L5.02044 13.8114C4.71272 13.5014 4.44482 13.1544 4.22294 12.7782C4.01415 12.4061 3.8499 12.0107 3.73357 11.6001C3.64069 11.1896 3.59208 10.7703 3.58857 10.3495C3.59102 9.91659 3.63963 9.48519 3.73357 9.0626C3.84649 8.65088 4.01091 8.25504 4.22294 7.88448C4.44044 7.50385 4.70869 7.15948 5.02044 6.85135C5.48606 6.39197 6.03308 6.02319 6.63356 5.76385C7.84361 5.27978 9.19352 5.27978 10.4036 5.76385C11.0017 6.01217 11.5418 6.37648 11.9986 6.83323L14.4636 9.31635L16.9286 6.83323C17.385 6.37567 17.9269 6.01232 18.5236 5.76385C19.7336 5.27978 21.0835 5.27978 22.2936 5.76385C22.8935 6.02304 23.4409 6.39279 23.9067 6.85135C24.2221 7.15042 24.4867 7.49842 24.6861 7.88448C25.1059 8.62482 25.3246 9.46215 25.3204 10.3132C25.3451 10.7512 25.3085 11.1904 25.2117 11.6182H25.1573Z" fill="black"/>
<path d="M14.4636 8.60664L16.5737 6.48097L16.5746 6.48011C17.0773 5.97615 17.6742 5.57595 18.3313 5.30228L18.3378 5.29958L18.3378 5.29962C19.6671 4.76785 21.15 4.76785 22.4793 5.29962L22.4919 5.30469L22.4919 5.30486C23.1476 5.58814 23.7454 5.99171 24.2541 6.49178C24.6048 6.82503 24.9011 7.21364 25.1258 7.64631C25.583 8.45606 25.8224 9.37055 25.8205 10.3004C25.8461 10.7797 25.8053 11.2603 25.6994 11.7286L25.6112 12.1182H25.5285C25.2668 12.8851 24.8344 13.5847 24.2621 14.163L24.2599 14.1653L14.8168 23.5902L14.4636 23.9428L14.1104 23.5902L4.66723 14.1652L4.66563 14.1637C4.32865 13.8243 4.03526 13.4442 3.79228 13.0323L3.78678 13.0229L3.78688 13.0229C3.55889 12.6165 3.37953 12.1847 3.2525 11.7364L3.24885 11.7235L3.24589 11.7104C3.14514 11.2651 3.0924 10.8102 3.08858 10.3537L3.08852 10.3466H3.08857C3.09123 9.87821 3.14383 9.41139 3.24548 8.95411L3.24813 8.94216L3.25137 8.93036C3.37542 8.47807 3.55604 8.04324 3.78895 7.63617L14.4636 8.60664ZM14.4636 8.60664L12.3534 6.48097L12.3521 6.47968C11.8499 5.9775 11.2551 5.57599 10.5953 5.30207L10.5953 5.30203L10.5893 5.29962C9.26001 4.76785 7.77712 4.76785 6.44785 5.29962L6.44778 5.29945L6.43532 5.30483C5.77791 5.58876 5.17904 5.99249 4.66928 6.49543L4.66896 6.49574C4.32657 6.83415 4.03006 7.2143 3.78896 7.63616L14.4636 8.60664ZM26.4854 8.78763L26.4859 8.78961C26.6283 9.33768 26.6961 9.90246 26.6874 10.4687L26.6873 10.4687L26.6873 10.4795C26.6941 11.555 26.411 12.6125 25.8677 13.5407L25.8675 13.5406L25.8614 13.5517C25.595 14.0346 25.2565 14.4799 24.8612 14.8686L24.8611 14.8685L24.8581 14.8716L14.4998 25.2299L4.1415 14.8715L4.14013 14.8702C3.74269 14.4758 3.39884 14.0309 3.11742 13.5468C2.85696 13.0744 2.65407 12.5725 2.51308 12.0518C2.37932 11.5377 2.31232 11.0081 2.31232 10.4764H2.31237L2.31226 10.4687C2.30361 9.90249 2.37139 9.33767 2.51376 8.78956L2.51379 8.78956L2.51512 8.78418C2.78153 7.70967 3.3432 6.73111 4.13663 5.95908L4.13665 5.95911L4.1409 5.95487C4.7236 5.37413 5.41356 4.91212 6.17245 4.59453C7.69867 3.96863 9.40988 3.96849 10.9362 4.59412C11.6465 4.8951 12.2998 5.31559 12.8679 5.83724L12.9376 5.92082L12.9521 5.93825L12.9681 5.95428L14.1463 7.13241L14.4998 7.48596L14.8534 7.13241L16.0315 5.95428L16.0475 5.93825L16.062 5.92082L16.1317 5.83724C16.6998 5.31559 17.3532 4.89511 18.0634 4.59413C19.5898 3.96848 21.301 3.96862 22.8272 4.59456C23.5861 4.91215 24.2761 5.37415 24.8587 5.95487L24.8587 5.95492L24.8645 5.96054C25.2614 6.34353 25.597 6.78536 25.8594 7.2705L25.8635 7.278L25.8678 7.28535C26.1428 7.7548 26.3507 8.26048 26.4854 8.78763Z" stroke="black"/>
</g>
</g>
</g>
<defs>
<filter id="filter0_d_111_20" x="-2.18848" y="3.625" width="33.377" height="30.3115" filterUnits="userSpaceOnUse" color-interpolation-filters="sRGB">
<feFlood flood-opacity="0" result="BackgroundImageFix"/>
<feColorMatrix in="SourceAlpha" type="matrix" values="0 0 0 0 0 0 0 0 0 0 0 0 0 0 0 0 0 0 127 0" result="hardAlpha"/>
<feOffset dy="4"/>
<feGaussianBlur stdDeviation="2"/>
<feComposite in2="hardAlpha" operator="out"/>
<feColorMatrix type="matrix" values="0 0 0 0 0 0 0 0 0 0 0 0 0 0 0 0 0 0 0.25 0"/>
<feBlend mode="normal" in2="BackgroundImageFix" result="effect1_dropShadow_111_20"/>
<feBlend mode="normal" in="SourceGraphic" in2="effect1_dropShadow_111_20" result="shape"/>
</filter>
<clipPath id="clip0_111_20">
<rect width="29" height="29" fill="white"/>
</clipPath>
</defs>
</svg>
